<?xml version="1.0" encoding="utf-8"?>
<!-- Generator: Adobe Illustrator 25.3.1, SVG Export Plug-In . SVG Version: 6.00 Build 0)  -->
<svg version="1.1" id="Layer_1" xmlns="http://www.w3.org/2000/svg" xmlns:xlink="http://www.w3.org/1999/xlink" x="0px" y="0px"
	 viewBox="0 0 3200.9 3100.8" style="enable-background:new 0 0 3200.9 3100.8;" xml:space="preserve">
<style type="text/css">
	.st0{fill:#F4F7FA;}
	.st1{clip-path:url(#SVGID_2_);fill:url(#SVGID_3_);}
	.st2{opacity:0.5;clip-path:url(#SVGID_5_);}
	.st3{fill:#BEB8F2;}
	.st4{fill:url(#SVGID_6_);}
	.st5{opacity:0.5;clip-path:url(#SVGID_8_);}
	.st6{fill:#FCFDFE;}
	.st7{fill:url(#SVGID_9_);}
	.st8{opacity:0.5;clip-path:url(#SVGID_11_);}
	.st9{fill:url(#SVGID_12_);}
	.st10{fill:url(#SVGID_13_);}
	.st11{fill:url(#SVGID_14_);}
	.st12{fill:url(#SVGID_15_);}
	.st13{opacity:0.9;fill:#FFFFFF;enable-background:new    ;}
	.st14{opacity:0.3;}
	.st15{fill:#97A6B7;}
	.st16{fill:url(#SVGID_17_);}
	.st17{fill:#FFFFFF;}
	.st18{opacity:0.2;}
	.st19{fill:url(#SVGID_18_);}
	.st20{fill:#D8DEE8;}
	.st21{fill:url(#SVGID_20_);}
	.st22{opacity:0.5;clip-path:url(#SVGID_23_);fill:#FFFFFF;enable-background:new    ;}
	.st23{opacity:0.5;clip-path:url(#SVGID_25_);fill:#FFFFFF;enable-background:new    ;}
	.st24{opacity:0.5;clip-path:url(#SVGID_27_);fill:#FFFFFF;enable-background:new    ;}
	.st25{opacity:0.5;clip-path:url(#SVGID_29_);fill:#FFFFFF;enable-background:new    ;}
	.st26{fill:url(#SVGID_30_);}
	.st27{opacity:0.3;clip-path:url(#SVGID_32_);fill:#FFFFFF;enable-background:new    ;}
	.st28{opacity:0.3;clip-path:url(#SVGID_34_);fill:#FFFFFF;enable-background:new    ;}
	.st29{opacity:0.3;clip-path:url(#SVGID_36_);fill:#FFFFFF;enable-background:new    ;}
	.st30{opacity:0.3;clip-path:url(#SVGID_38_);fill:#FFFFFF;enable-background:new    ;}
	.st31{fill:url(#SVGID_39_);}
	.st32{opacity:0.5;clip-path:url(#SVGID_41_);fill:#FFFFFF;enable-background:new    ;}
	.st33{opacity:0.5;clip-path:url(#SVGID_43_);fill:#FFFFFF;enable-background:new    ;}
	.st34{opacity:0.5;clip-path:url(#SVGID_45_);fill:#FFFFFF;enable-background:new    ;}
	.st35{opacity:0.5;clip-path:url(#SVGID_47_);fill:#FFFFFF;enable-background:new    ;}
	.st36{fill:url(#SVGID_48_);}
	.st37{opacity:0.74;clip-path:url(#SVGID_50_);fill:#FFFFFF;enable-background:new    ;}
	.st38{opacity:0.74;clip-path:url(#SVGID_52_);fill:#FFFFFF;enable-background:new    ;}
	.st39{opacity:0.74;clip-path:url(#SVGID_54_);fill:#FFFFFF;enable-background:new    ;}
	.st40{clip-path:url(#SVGID_56_);fill:#FFFFFF;}
	.st41{fill:url(#SVGID_57_);}
	.st42{fill:url(#SVGID_58_);}
	.st43{fill:url(#SVGID_59_);}
	.st44{opacity:0.3;fill:url(#SVGID_60_);enable-background:new    ;}
	.st45{fill:url(#SVGID_61_);}
	.st46{fill:url(#SVGID_62_);}
	.st47{fill:url(#SVGID_63_);}
	.st48{fill:url(#SVGID_64_);}
	.st49{opacity:0.3;fill:url(#SVGID_65_);enable-background:new    ;}
	.st50{fill:url(#SVGID_66_);}
	.st51{fill:url(#SVGID_67_);}
	.st52{fill:url(#SVGID_68_);}
	.st53{fill:url(#SVGID_69_);}
	.st54{fill:url(#SVGID_70_);}
	.st55{fill:url(#SVGID_71_);}
	.st56{fill:url(#SVGID_72_);}
	.st57{opacity:0.3;fill:url(#SVGID_73_);enable-background:new    ;}
</style>
<g id="Illustration">
	<g id="Order_canceled">
		<path class="st0" d="M1610.5,179.6C908.1,158.3,299.7,682.4,207.7,1370.1c-100.5,752,452.7,1428.5,1133.4,1536.9
			c846.6,134.8,1667.8-645,1594.1-1490.9C2879.6,778.8,2324.5,201.3,1610.5,179.6z"/>
		<g>
			<g>
				<g>
					<g>
						<defs>
							<path id="SVGID_1_" d="M674.7,802.7c85.4-166.9,212.2-365.2,324.5-165.8s422.4,9.7,521.4-279.8
								c96.9-283.2,656.3-274.4,502.9,357.9c-91.6,377.6-469.9,394.5-658.9,448.4c-189,53.9-149.6,342.9-403.3,290.6
								c-216.8-44.7-393.8-175.2-508.2-27.3C338.6,1574.5,618.1,913.4,674.7,802.7z"/>
						</defs>
						<clipPath id="SVGID_2_">
							<use xlink:href="#SVGID_1_"  style="overflow:visible;"/>
						</clipPath>
						
							<linearGradient id="SVGID_3_" gradientUnits="userSpaceOnUse" x1="10104.417" y1="3963.437" x2="9358.7178" y2="6082.7935" gradientTransform="matrix(-0.1901 -0.9818 -0.9818 0.1901 7800.8213 9591.0654)">
							<stop  offset="3.597120e-03" style="stop-color:#E38DDD"/>
							<stop  offset="1" style="stop-color:#9571F6"/>
						</linearGradient>
						<path class="st1" d="M1520.6,357.1c-99,289.5-375.7,480.6-521.4,304.2c-128.8-155.9-239.1-25.5-324.5,141.4
							c-50.5,98.9-130.6,331.5-366.3,286.3c0.2,3.8-0.2,7.8-1.3,12c-6.4,150.6-18.2,300.8-26,451.3
							c66.1-17.8,122.5-61.9,171.9-125.7c114.4-147.9,291.5-17.4,508.2,27.3c253.8,52.4,214.3-236.6,403.3-290.5
							s567.4-70.8,659-448.4C2177,82.7,1617.6,73.9,1520.6,357.1z"/>
					</g>
				</g>
				<g>
					<g>
						<defs>
							<path id="SVGID_4_" d="M674.7,802.7c85.4-166.9,212.2-365.2,324.5-165.8s422.4,9.7,521.4-279.8
								c96.9-283.2,656.3-274.4,502.9,357.9c-91.6,377.6-469.9,394.5-658.9,448.4c-189,53.9-149.6,342.9-403.3,290.6
								c-216.8-44.7-393.8-175.2-508.2-27.3C338.6,1574.5,618.1,913.4,674.7,802.7z"/>
						</defs>
						<clipPath id="SVGID_5_">
							<use xlink:href="#SVGID_4_"  style="overflow:visible;"/>
						</clipPath>
						<g class="st2">
							<path class="st3" d="M1855.6,92c-0.8,618.1-532.6,916.1-978.6,1057.2c-204.3,64.6-409.7,103.2-579.2,126.1
								c-0.2,2.7-0.3,5.4-0.5,8c170.2-23,376.6-61.6,581.9-126.6c285.2-90.2,512.6-212.8,675.8-364.3
								c204.3-189.6,308.1-425.3,308.4-700.5L1855.6,92z"/>
							<path class="st3" d="M1466.2,868.1l-0.5-7.9c262.6-17.7,607.9-185.9,611.4-187.6l3.5,7.1
								C2077.1,681.4,1730.4,850.3,1466.2,868.1z"/>
							<path class="st3" d="M1598.9,738c112.2-292.9-13.2-521.9-14.5-524.2l6.9-3.9c1.3,2.3,128.6,234.4,14.9,530.9L1598.9,738z"/>
							<path class="st3" d="M555.1,1232.1c349.2-157.7,342.6-672.9,342.1-677.9l7.8-1.3c0.9,4.9,5.7,527.3-346.7,686.4L555.1,1232.1
								z"/>
							<path class="st3" d="M710.6,1204.5l0.1-7.9c244.5,3.4,455.6,227,457.7,229.3l-5.8,5.4C1160.5,1429,951.7,1207.8,710.6,1204.5
								z"/>
							<path class="st3" d="M414,1487.6c-23.6-21.8-69.3-63.9-123-102.9c-0.2,3.1-0.4,6.2-0.6,9.3c51.5,37.9,95.4,78.3,118.2,99.4
								c10.1,9.3,14.3,13.2,16.2,14.3l4-6.8C427.6,1500.1,421.3,1494.3,414,1487.6z"/>
						</g>
					</g>
				</g>
			</g>
			<g>
				
					<linearGradient id="SVGID_6_" gradientUnits="userSpaceOnUse" x1="-2117.71" y1="5123.499" x2="-1332.1666" y2="7187.5815" gradientTransform="matrix(-0.293 0.9561 -0.9561 -0.293 7308.0498 4748.8569)">
					<stop  offset="0" style="stop-color:#FFC444"/>
					<stop  offset="0.9964" style="stop-color:#F36F56"/>
				</linearGradient>
				<path class="st4" d="M1441.8,1058.9c-57-62.7-139-56.9-197.7-43.4c-2.8,7.6-6.4,11.3-10.9,18.3c-41.1,63.6-45,99.5-75.6,168.5
					c-6.6,14.9-12.6,64.4-13.8,84.8l-1.6,38.1c0,0,147.9,127.2,229.1,51.5s237,27.3,326.3,71.7c54.8,27.2,88.6,22.2,110.4,28.9
					c230.2,71.8,271.3,164.8,360.5,142.2c98.5-25,76.6-145.6,182.3-178.4c119.3-37.1,227.3,91.8,332.4,31.4
					c18-10.3,36.2-21.5,52.9-43.6c41.2-54.6,24.2-118,91.3-142.8c134.8-49.7,224.6-181.5,151.4-310.2
					c-72.2-127-316.5-104.1-576.8,90.1c-200.9,117-243.3,103.3-339.2,49.9c-67.2-37.4-224.6-183.4-335.9-108.4
					C1615.4,1082.5,1507,1130.6,1441.8,1058.9z"/>
				<g>
					<g>
						<g>
							<defs>
								<path id="SVGID_7_" d="M1170.6,1038.2l-32.4,278.9c0,0,152,135.3,233.2,59.6c81.2-75.7,237,27.3,326.3,71.7
									c242.2,120.4,326.3-181.9,649.7-54.2c86,33.9,238.7,129.9,335.8,78.3c110.7-58.8,58-154.5,144.2-186.3
									c134.8-49.7,224.6-181.5,151.4-310.2c-72.2-127-316.5-104.1-576.8,90.1c-200.9,117-243.3,103.3-339.2,49.9
									c-67.2-37.4-224.6-183.4-335.9-108.4s-219.9,123-285,51.3C1342.7,949.8,1170.6,1038.2,1170.6,1038.2z"/>
							</defs>
							<clipPath id="SVGID_8_">
								<use xlink:href="#SVGID_7_"  style="overflow:visible;"/>
							</clipPath>
							<g class="st5">
								<path class="st6" d="M1168.5,1164.4l-1.3,5.4c29.8,7.4,60,14.5,89.7,21c219.8,48.4,436.4,72.9,643.8,72.8
									c175.7-0.1,347.3-17.9,510-52.8c130.8-28.1,256.6-67.3,373.9-116.6c82.4-34.7,159.9-74,230.1-116.7
									c12.2-7.4,24.4-15.8,36.1-23.9c15.7-10.8,31.8-21.9,48.4-31l-2.3-4.9c-16.8,9.2-33.1,20.4-48.8,31.2
									c-11.7,8-23.8,16.3-35.9,23.7c-70,42.7-147.2,81.8-229.4,116.4c-117,49.2-242.5,88.4-373,116.3
									c-162.4,34.8-333.6,52.5-509,52.6c-207,0.1-423.3-24.3-642.7-72.6C1228.4,1178.9,1198.2,1171.8,1168.5,1164.4z"/>
								<path class="st6" d="M2210.4,1239.1l0.3,5.5c221.5-21.2,536.1,199,539.3,201.2l2.9-4.7
									C2749.8,1438.9,2433.7,1217.7,2210.4,1239.1z"/>
								<path class="st6" d="M1587.5,1240.1l-0.3,5.6c151.6,4.5,354.1-226.8,356.2-229.1l-3.7-3.7
									C1937.7,1015.1,1736.8,1244.5,1587.5,1240.1z"/>
								<path class="st6" d="M1501.9,1229.6l-1.2,5.4c96.4,21.7,215.8,107,336.1,240.2c6.1,6.7,6.1,6.7,7,6.9l1.2-5.4l-0.6,2.7
									l1.5-2.3c-0.4-0.4-2.7-2.9-5.4-5.9C1719.6,1337.4,1599.3,1251.5,1501.9,1229.6z"/>
								<path class="st6" d="M1223.1,1177.1l0.3,5.5c109-10,203.1-154.2,204-155.7l-4.2-3.1
									C1422.3,1025.3,1329.6,1167.4,1223.1,1177.1z"/>
								<path class="st6" d="M1165.2,1172.2c72.7,51.3,133.4,127.1,185.8,231.7l4.6-2.7c-52.8-105.4-114.1-181.8-187.4-233.6
									L1165.2,1172.2z"/>
								<path class="st6" d="M2713.3,1116.9l0.6,5.5c122.7-19.1,255-8.8,298.4-5.4c10.5,0.8,14.2,1.1,15.5,0.9l-0.4-5.5
									c-1,0.1-7-0.4-14.6-1C2969.3,1108,2836.6,1097.7,2713.3,1116.9z"/>
								<path class="st6" d="M2517.3,1179.6l2.1,5c106-53.4,188.8-288.3,192.2-298.3l-4.8-1.8
									C2705.9,886.9,2621.3,1127.2,2517.3,1179.6z"/>
							</g>
						</g>
					</g>
				</g>
			</g>
			<g>
				
					<linearGradient id="SVGID_9_" gradientUnits="userSpaceOnUse" x1="2818.9839" y1="4747.2808" x2="3876.5078" y2="6488.2378" gradientTransform="matrix(-0.191 0.9816 -0.9816 -0.191 7905.1011 -1186.2872)">
					<stop  offset="0" style="stop-color:#FF9085"/>
					<stop  offset="1" style="stop-color:#FB6FBB"/>
				</linearGradient>
				<path class="st7" d="M2853.3,415.6c-90.7-317.4-578.3-149.7-772.9,172.1c-56.5,93.4-103.2,140.7-145.1,159.8
					c-126.5,48.4-214.1,108.1-270.7,153.7c-164.2,132.2-194.5,247.5-348.5,332.6c-97.3,53.7-193.2,67.4-258,70.7
					c1.5,14.1,1.3,28.8-1.1,44c-4.3,27.1-8.6,54.3-13,81.4c56,35,115.3,57.7,154.5-19.5c60.9-119.9,272.8-78.6,340.8-27.9
					c84.1,62.7,282.8,204.5,379.6,20.7c80.6-153.1,103.3-269,303.7-238.8c200.4,30.3,346.6-58.5,372.1-251.7
					C2621.4,709.3,2905.3,597.8,2853.3,415.6z"/>
				<g>
					<g>
						<g>
							<defs>
								<path id="SVGID_10_" d="M999.2,1405c53.7,37.3,155.3,91.6,199.1,5.4c60.9-119.9,272.8-78.6,340.8-27.9
									c84.1,62.7,282.8,204.5,379.6,20.7c80.6-153.1,103.3-269,303.7-238.8c200.4,30.3,346.6-58.5,372.1-251.7
									c26.8-203.3,310.8-314.9,258.7-497c-90.7-317.4-578.3-149.7-772.9,172.1C1885.6,909.5,999.2,1405,999.2,1405z"/>
							</defs>
							<clipPath id="SVGID_11_">
								<use xlink:href="#SVGID_10_"  style="overflow:visible;"/>
							</clipPath>
							<g class="st8">
								<path class="st6" d="M2026.5,962.3c-154.9,76.7-318,135.3-485,173.2c-11.2,5.9-22.5,11.6-33.9,17.2
									c185.3-38.7,366.2-102.6,537-188.7C2038.6,963.3,2032.5,962.8,2026.5,962.3z"/>
								<path class="st6" d="M2834.3,283.7c-185.6,255.6-427.1,467-698.8,620.8c1.9,1.9,3.8,3.7,5.6,5.6c0.3,0.3,0.8,0.8,1.3,1.3
									c271.8-154.3,513.3-366,699.1-621.9L2834.3,283.7z"/>
								<path class="st6" d="M1498.3,1157.3c-4.5,2.2-9,4.3-13.6,6.5c247.8,60.4,397.1,324.3,398.6,327l7.9-5
									C1889.6,1483.1,1743,1223.9,1498.3,1157.3z"/>
								<path class="st6" d="M1612.4,625.4c3.2-11.2,4.9-17.7,5.1-18.2l-8.8-2.4c-0.2,0.6-2,7.7-5.5,19.8
									C1606.3,624.8,1609.4,625.1,1612.4,625.4z"/>
								<path class="st6" d="M2151.8,921.3c2.6,2.8,5.4,6,8.4,9.4c192.9-2.6,407,151.3,409.4,153l5.2-8
									C2572.3,1074,2349.9,914.2,2151.8,921.3z"/>
								<path class="st6" d="M2452.1,688.8l6.7,6.5c164-187.2,159.2-530.7,159.2-534.2l-9.1,0.3
									C2608.9,164.8,2613.6,504.5,2452.1,688.8z"/>
							</g>
						</g>
					</g>
				</g>
			</g>
		</g>
		<g>
			<g>
				
					<linearGradient id="SVGID_12_" gradientUnits="userSpaceOnUse" x1="673.5108" y1="-1729.6996" x2="1232.9659" y2="-775.3339" gradientTransform="matrix(1 0 0 1 0 2011.8171)">
					<stop  offset="0" style="stop-color:#444B8C"/>
					<stop  offset="0.9964" style="stop-color:#26264F"/>
				</linearGradient>
				<path class="st9" d="M2674,2509.3L406,2714c-33.8,2.8-82.4-42-82.4-76V920.9c0-31.8,25.5-57.7,57.3-58.1l2287.6-31.6
					c32.4-0.4,93.7,23.4,93.7,55.9l-34.8,1564.4C2727.4,2481.7,2704.2,2506.9,2674,2509.3z"/>
				
					<linearGradient id="SVGID_13_" gradientUnits="userSpaceOnUse" x1="1310.1873" y1="-1043.9316" x2="2488.3359" y2="2615.5623" gradientTransform="matrix(1 0 0 1 0 2011.8171)">
					<stop  offset="0" style="stop-color:#444B8C"/>
					<stop  offset="0.9964" style="stop-color:#26264F"/>
				</linearGradient>
				<path class="st10" d="M2720.1,2525.2L432.5,2711.9c-33.8,2.8-62.9-24-62.9-57.9V936.8c0-31.8,25.5-57.7,57.3-58.1l2287.6-31.6
					c32.4-0.4,58.9,25.7,58.9,58.1v1562.1C2773.5,2497.6,2750.2,2522.8,2720.1,2525.2z"/>
				
					<linearGradient id="SVGID_14_" gradientUnits="userSpaceOnUse" x1="570.4139" y1="-247.055" x2="2627.0142" y2="-247.055" gradientTransform="matrix(1 0 0 1 0 2011.8171)">
					<stop  offset="0.494" style="stop-color:#EBEFF2"/>
					<stop  offset="1" style="stop-color:#FFFFFF"/>
				</linearGradient>
				<path class="st11" d="M634.6,2642.2l1937.6-154.3c30.9-2.5,54.8-28.3,54.8-59.3v-1482c0-33.2-27.2-60-60.4-59.5L629,916.8
					c-32.5,0.5-58.6,27-58.6,59.5v1606.6C570.4,2617.6,600,2645,634.6,2642.2z"/>
				
					<linearGradient id="SVGID_15_" gradientUnits="userSpaceOnUse" x1="2873.4595" y1="-678.4894" x2="2642.7046" y2="-248.4471" gradientTransform="matrix(1 0 0 1 0 2011.8171)">
					<stop  offset="0" style="stop-color:#444B8C"/>
					<stop  offset="0.9964" style="stop-color:#26264F"/>
				</linearGradient>
				<path class="st12" d="M2708,1737.1L2708,1737.1c-11.2,0-20.3-9.1-20.3-20.3v-150.2c0-11.2,9.1-20.3,20.3-20.3l0,0
					c11.2,0,20.3,9.1,20.3,20.3v150.2C2728.2,1728,2719.1,1737.1,2708,1737.1z"/>
				<path class="st13" d="M2285,2157.7c-176.5-153.9-317.9-93.7-504.6-250.1c-231.7-194.1-116.3-373.2-320.3-544.1
					c-255.1-213.8-563.3-40.4-754.7-254.5c-50.1-56-78-122.8-92.6-189.7c-24.5,7.4-42.3,30.1-42.3,56.9v1606.6
					c0,34.7,29.6,62.1,64.2,59.3l1855.4-147.8C2456.1,2379.3,2395.7,2254.3,2285,2157.7z"/>
			</g>
		</g>
		<g class="st14">
			<path class="st15" d="M2357,1670.6l-1507.4,56.8c-25.6,1-46.3-17.5-46.3-41.3v-100.9c0-23.6,20.7-43.4,46.1-44.1l1501.6-43.3
				c21.9-0.6,40.3,16.6,41.1,38.4l3.3,93.2C2396.2,1651.3,2379,1669.8,2357,1670.6z"/>
			<path class="st15" d="M910.4,1763l136.7,499.8c8.7,31.9,39.4,52.6,74.4,50.2l1015.2-67.1c31.6-2.1,58.4-25.4,65.1-56.4
				l103.8-481.4L910.4,1763z M1297.6,2219.7c0.2,20.1-16.6,37.5-37.6,38.9l-36.3,2.3c-21.1,1.4-38.4-14-38.6-34.2l-3.3-390.6
				c-0.2-19.9,16.7-36.7,37.6-37.5l36-1.5c20.8-0.9,37.8,14.4,38,34.2L1297.6,2219.7z M1497.8,2207.3c0.3,19.9-16.1,37.1-36.7,38.5
				l-35.6,2.3c-20.7,1.3-37.8-13.8-38-33.9l-4.9-386.7c-0.2-19.7,16.2-36.3,36.7-37.1l35.3-1.5c20.4-0.9,37.2,14.3,37.4,33.9
				L1497.8,2207.3z M1694.2,2195.1c0.4,19.7-15.7,36.8-35.9,38.1l-34.9,2.2c-20.3,1.3-37.1-13.7-37.4-33.6l-6.6-382.9
				c-0.3-19.5,15.8-35.9,35.9-36.8l34.6-1.4c20-0.8,36.5,14.2,36.9,33.6L1694.2,2195.1z M1886.9,2183.1c0.5,19.5-15.2,36.4-35,37.7
				l-34.3,2.2c-19.9,1.3-36.5-13.6-36.9-33.2l-8.1-379.2c-0.4-19.3,15.3-35.6,35-36.4l34-1.4c19.6-0.8,35.9,14.1,36.4,33.2
				L1886.9,2183.1z M2076,2171.3c0.5,19.3-14.8,36-34.2,37.3l-33.6,2.1c-19.6,1.2-35.9-13.5-36.3-32.9l-9.6-375.6
				c-0.5-19.1,14.9-35.2,34.2-36.1l33.3-1.4c19.3-0.8,35.3,13.9,35.8,32.9L2076,2171.3z"/>
			<g>
				<g>
					<path class="st15" d="M1524.8,1047.4c-7.6-8.1-23-6.9-34.4,2.7l-474.7,398.4c-12.2,10.2-15.6,25.2-7.7,33.5
						c7.9,8.3,24.2,6.7,36.4-3.6l473.5-399.1C1529.3,1069.7,1532.4,1055.4,1524.8,1047.4z"/>
				</g>
				<g>
					<path class="st15" d="M1712,1045.5c7.2-8.1,22.5-7,34.1,2.5l460.9,374.9c11.3,9.2,14.9,23.2,8,31.4c-6.9,8.2-21.6,7.4-32.9-1.8
						L1720,1077.3C1708.3,1067.8,1704.7,1053.6,1712,1045.5z"/>
				</g>
			</g>
		</g>
		<g>
			<g>
				
					<linearGradient id="SVGID_17_" gradientUnits="userSpaceOnUse" x1="935.0074" y1="-30.8273" x2="1735.8469" y2="-30.8273" gradientTransform="matrix(0.9957 9.210000e-02 -9.210000e-02 0.9957 299.1389 1601.9801)">
					<stop  offset="0" style="stop-color:#FF9085"/>
					<stop  offset="1" style="stop-color:#FB6FBB"/>
				</linearGradient>
				<path class="st16" d="M2032.7,1705.7c-20.4,220.5-215.7,394.6-436.9,389c-221.9-5.7-385.8-190.1-365.2-411.9
					c20.5-221.8,217.5-396,439.3-388.9C1891,1300.8,2053.1,1485.2,2032.7,1705.7z"/>
				<g>
					<path class="st17" d="M1636.8,1947.6c-139.7,0-253.4-113.7-253.4-253.4s113.7-253.4,253.4-253.4s253.4,113.7,253.4,253.4
						S1776.5,1947.6,1636.8,1947.6z M1636.8,1534c-88.3,0-160.2,71.9-160.2,160.2c0,88.3,71.9,160.2,160.2,160.2
						s160.2-71.9,160.2-160.2S1725.2,1534,1636.8,1534z"/>
				</g>
				<g>
					<path class="st17" d="M1519.6,1869.3c-11.9,0-23.8-4.5-32.8-13.6c-18.2-18.1-18.3-47.6-0.2-65.9l253-254.5
						c18.2-18.3,47.6-18.3,65.9-0.2c18.2,18.2,18.3,47.7,0.2,65.9l-253,254.5C1543.6,1864.7,1531.6,1869.3,1519.6,1869.3z"/>
				</g>
			</g>
			<g class="st18">
				
					<linearGradient id="SVGID_18_" gradientUnits="userSpaceOnUse" x1="934.8987" y1="-26.6355" x2="1542.7242" y2="-26.6355" gradientTransform="matrix(0.9957 9.210000e-02 -9.210000e-02 0.9957 299.1389 1601.9801)">
					<stop  offset="0" style="stop-color:#FF9085"/>
					<stop  offset="1" style="stop-color:#FB6FBB"/>
				</linearGradient>
				<path class="st19" d="M1598.5,1988.5c-29.1-51.4,29.7-93.7,32.1-196.3c3.6-155.7-128.3-212.2-110.7-343.5
					c4.9-36.5,23.1-91.2,91.2-152.5c-196.9,22.1-361.9,184.5-380.6,386.5c-20.5,221.8,143.3,406.3,365.2,411.9
					c75.7,1.9,148.3-17.2,211.9-52C1724.9,2048.3,1629.3,2042.9,1598.5,1988.5z"/>
			</g>
		</g>
		<g>
			<path class="st20" d="M2367.3,2601.1c-221.9-2.3-233.5,13.9-235.2,21.4c-7.6,34.3,141.2,118.6,299.3,132.6
				c93.5,8.3,170.7-10.2,325-47c102.9-24.6,154.3-36.9,153.9-51.3C2909.2,2615.9,2532.6,2602.8,2367.3,2601.1z"/>
			<g>
				<g>
					<g>
						<g>
							
								<linearGradient id="SVGID_20_" gradientUnits="userSpaceOnUse" x1="2634.3318" y1="-15.9696" x2="2616.9756" y2="673.3145" gradientTransform="matrix(1 0 0 1 0 2011.8171)">
								<stop  offset="3.597120e-03" style="stop-color:#E38DDD"/>
								<stop  offset="1" style="stop-color:#9571F6"/>
							</linearGradient>
							<path id="SVGID_16_" class="st21" d="M2452.2,2636.1c-20.2,4.1-69.9-62.2-55.9-116.9c15.3-60.1,93.9-52.6,118.6-118.1
								c20.2-53.5-24.3-77.4-9.9-150.5c9.8-49.6,43.9-100.9,90.8-127.1c61.3-34.2,102.3-2,142.1-37.9
								c46.9-42.2,23.6-117.1,41.8-120.5c26.3-5,112.5,145.9,63,218.6c-41.6,61.1-143,13.9-194.2,82
								c-43.1,57.3,12.6,111.9-35.2,179.5c-39.4,55.6-98.6,41.4-133.4,106.3C2456.2,2595.8,2466.8,2633.2,2452.2,2636.1z"/>
						</g>
						<g>
							<g>
								<defs>
									<path id="SVGID_21_" d="M2452.2,2636.1c-20.2,4.1-69.9-62.2-55.9-116.9c15.3-60.1,93.9-52.6,118.6-118.1
										c20.2-53.5-24.3-77.4-9.9-150.5c9.8-49.6,43.9-100.9,90.8-127.1c61.3-34.2,102.3-2,142.1-37.9
										c46.9-42.2,23.6-117.1,41.8-120.5c26.3-5,112.5,145.9,63,218.6c-41.6,61.1-143,13.9-194.2,82
										c-43.1,57.3,12.6,111.9-35.2,179.5c-39.4,55.6-98.6,41.4-133.4,106.3C2456.2,2595.8,2466.8,2633.2,2452.2,2636.1z"/>
								</defs>
								<clipPath id="SVGID_23_">
									<use xlink:href="#SVGID_21_"  style="overflow:visible;"/>
								</clipPath>
								<path class="st22" d="M2461.6,2556.4l-1.2-1.3c58.9-55.3,95.7-116.4,109.3-181.8c7.6-36.8,6.6-67.1,5.6-93.9
									c-1.2-35-2.2-62.6,19.7-83c21.6-20.1,49.5-19.2,79-18.1c32.2,1.1,65.6,2.3,93.8-24.1c28-26.2,33.7-64,36.1-80.1
									c9.2-61.2-19-110.1-31.6-128.3l1.4-1c12.7,18.3,41.1,67.6,31.9,129.5c-2.4,16.3-8.2,54.6-36.6,81.1
									c-28.7,26.8-62.4,25.7-95,24.6c-29.1-1-56.7-2-77.8,17.7c-21.3,19.9-20.4,45.8-19.1,81.7c0.9,26.9,2,57.4-5.7,94.4
									C2557.8,2439.4,2520.8,2500.9,2461.6,2556.4z"/>
							</g>
						</g>
						<g>
							<g>
								<defs>
									<path id="SVGID_24_" d="M2452.2,2636.1c-20.2,4.1-69.9-62.2-55.9-116.9c15.3-60.1,93.9-52.6,118.6-118.1
										c20.2-53.5-24.3-77.4-9.9-150.5c9.8-49.6,43.9-100.9,90.8-127.1c61.3-34.2,102.3-2,142.1-37.9
										c46.9-42.2,23.6-117.1,41.8-120.5c26.3-5,112.5,145.9,63,218.6c-41.6,61.1-143,13.9-194.2,82
										c-43.1,57.3,12.6,111.9-35.2,179.5c-39.4,55.6-98.6,41.4-133.4,106.3C2456.2,2595.8,2466.8,2633.2,2452.2,2636.1z"/>
								</defs>
								<clipPath id="SVGID_25_">
									<use xlink:href="#SVGID_24_"  style="overflow:visible;"/>
								</clipPath>
								<path class="st23" d="M2766.8,2170.5c-4.7-1.5-8.6-3.9-10.9-7.6c-5.2-8.1-0.3-18,5.4-29.4c6.1-12.1,12.9-25.8,11.3-42.4
									c-2.2-22.9-20.1-44.9-53.3-65.6l0.9-1.5c33.7,21,51.9,43.5,54.1,66.9c1.6,17.1-5.7,31.6-11.5,43.3
									c-5.7,11.4-10.2,20.3-5.5,27.6c9.1,14.2,43.2,8.2,59.6,5.3c37.9-6.6,73.7-23.6,106.3-50.2l1.1,1.3
									c-32.9,26.9-68.9,43.9-107.1,50.6C2804.6,2171.2,2781.5,2175.2,2766.8,2170.5z"/>
							</g>
						</g>
						<g>
							<g>
								<defs>
									<path id="SVGID_26_" d="M2452.2,2636.1c-20.2,4.1-69.9-62.2-55.9-116.9c15.3-60.1,93.9-52.6,118.6-118.1
										c20.2-53.5-24.3-77.4-9.9-150.5c9.8-49.6,43.9-100.9,90.8-127.1c61.3-34.2,102.3-2,142.1-37.9
										c46.9-42.2,23.6-117.1,41.8-120.5c26.3-5,112.5,145.9,63,218.6c-41.6,61.1-143,13.9-194.2,82
										c-43.1,57.3,12.6,111.9-35.2,179.5c-39.4,55.6-98.6,41.4-133.4,106.3C2456.2,2595.8,2466.8,2633.2,2452.2,2636.1z"/>
								</defs>
								<clipPath id="SVGID_27_">
									<use xlink:href="#SVGID_26_"  style="overflow:visible;"/>
								</clipPath>
								<path class="st24" d="M2575.5,2264.9l-0.4-0.5c-9.6-11.8-15.2-24.2-16.4-37c-2.5-26,13.3-47.7,27.3-66.8
									c12.9-17.7,24-32.9,18.7-47.8c-3-8.4-11-15.2-23.7-20.3l0.6-1.6c13.2,5.3,21.5,12.5,24.7,21.4c5.6,15.7-5.8,31.3-18.9,49.4
									c-13.8,18.9-29.4,40.3-26.9,65.6c1.2,12.3,6.4,24.2,15.6,35.6c16.7-6.6,34-10.1,51.4-10.2c54.3-0.6,93.7,31.2,108.2,45
									l-1.2,1.3c-14.3-13.6-53.2-45-106.9-44.5c-17.4,0.2-34.7,3.7-51.4,10.4H2575.5z"/>
							</g>
						</g>
						<g>
							<g>
								<defs>
									<path id="SVGID_28_" d="M2452.2,2636.1c-20.2,4.1-69.9-62.2-55.9-116.9c15.3-60.1,93.9-52.6,118.6-118.1
										c20.2-53.5-24.3-77.4-9.9-150.5c9.8-49.6,43.9-100.9,90.8-127.1c61.3-34.2,102.3-2,142.1-37.9
										c46.9-42.2,23.6-117.1,41.8-120.5c26.3-5,112.5,145.9,63,218.6c-41.6,61.1-143,13.9-194.2,82
										c-43.1,57.3,12.6,111.9-35.2,179.5c-39.4,55.6-98.6,41.4-133.4,106.3C2456.2,2595.8,2466.8,2633.2,2452.2,2636.1z"/>
								</defs>
								<clipPath id="SVGID_29_">
									<use xlink:href="#SVGID_28_"  style="overflow:visible;"/>
								</clipPath>
								<path class="st25" d="M2550.7,2436.7l-0.3-0.3c-1.5-1.5-148.9-147.8-155.6-152.4l1-1.4c6.7,4.6,146.1,143,155.5,152.3
									l228.3-28.3l0.2,1.7L2550.7,2436.7z"/>
							</g>
						</g>
					</g>
				</g>
				<g>
					<g>
						<g>
							
								<linearGradient id="SVGID_30_" gradientUnits="userSpaceOnUse" x1="2320.0317" y1="583.048" x2="2383.0723" y2="534.9203" gradientTransform="matrix(1 0 0 1 0 2011.8171)">
								<stop  offset="0" style="stop-color:#AA80F9"/>
								<stop  offset="0.9964" style="stop-color:#6165D7"/>
							</linearGradient>
							<path id="SVGID_19_" class="st26" d="M2452.7,2683.3c-12.6-4.5-30.6-12.3-49.6-26.2c-20-14.6-39.1-28.5-46.4-51.9
								c-8.4-27,8.4-35.5-0.1-60.2c-9.6-28.1-35.1-25.2-45-54.5c-6.8-19.8-1-38.7,4.1-55.3c6.1-19.9,20.1-48.6,29.2-46.8
								c10.8,2.2-3.7,43.6,20.9,72.1c18.6,21.6,40.2,13.3,58.6,38.5c2.5,3.4,16.4,22.4,13.4,45.2c-3.7,27.9-25.9,35.3-31.2,58.4
								C2402.8,2619,2409,2644.4,2452.7,2683.3z"/>
						</g>
						<g>
							<g>
								<defs>
									<path id="SVGID_31_" d="M2452.7,2683.3c-12.6-4.5-30.6-12.3-49.6-26.2c-20-14.6-39.1-28.5-46.4-51.9
										c-8.4-27,8.4-35.5-0.1-60.2c-9.6-28.1-35.1-25.2-45-54.5c-6.8-19.8-1-38.7,4.1-55.3c6.1-19.9,20.1-48.6,29.2-46.8
										c10.8,2.2-3.7,43.6,20.9,72.1c18.6,21.6,40.2,13.3,58.6,38.5c2.5,3.4,16.4,22.4,13.4,45.2c-3.7,27.9-25.9,35.3-31.2,58.4
										C2402.8,2619,2409,2644.4,2452.7,2683.3z"/>
								</defs>
								<clipPath id="SVGID_32_">
									<use xlink:href="#SVGID_31_"  style="overflow:visible;"/>
								</clipPath>
								<path class="st27" d="M2458.8,2693.1c-4-3.8-9.3-8.3-14.9-13.1c-24.6-21-58.2-49.7-54.5-76.9c1.9-14.3,4.4-25.5,6.4-34.4
									c3.8-17.3,6.1-27.7,0.8-41.3c-6.3-16.1-17.8-22.9-29.9-30.1c-10.9-6.5-22.2-13.2-29.8-27.1c-12.3-22.6-8.8-54.4,10.3-94.4
									l1.6,0.8c-18.9,39.5-22.4,70.7-10.4,92.8c7.3,13.5,18.4,20.1,29.1,26.5c11.9,7.1,24.1,14.3,30.6,30.9
									c5.5,14,3.2,24.7-0.7,42.3c-2,8.9-4.4,20-6.3,34.3c-3.6,26.2,29.7,54.6,53.9,75.4c5.6,4.8,10.9,9.3,14.9,13.2L2458.8,2693.1
									z"/>
							</g>
						</g>
						<g>
							<g>
								<defs>
									<path id="SVGID_33_" d="M2452.7,2683.3c-12.6-4.5-30.6-12.3-49.6-26.2c-20-14.6-39.1-28.5-46.4-51.9
										c-8.4-27,8.4-35.5-0.1-60.2c-9.6-28.1-35.1-25.2-45-54.5c-6.8-19.8-1-38.7,4.1-55.3c6.1-19.9,20.1-48.6,29.2-46.8
										c10.8,2.2-3.7,43.6,20.9,72.1c18.6,21.6,40.2,13.3,58.6,38.5c2.5,3.4,16.4,22.4,13.4,45.2c-3.7,27.9-25.9,35.3-31.2,58.4
										C2402.8,2619,2409,2644.4,2452.7,2683.3z"/>
								</defs>
								<clipPath id="SVGID_34_">
									<use xlink:href="#SVGID_33_"  style="overflow:visible;"/>
								</clipPath>
								<path class="st28" d="M2347.6,2494.8c-7.5-2.4-15.6-6.5-23.2-13.2c-27.3-24.5-21.1-62.4-20.8-64.1l1.7,0.3
									c-0.3,1.6-6.4,38.6,20.2,62.5c13.8,12.3,29.7,15.4,39.3,16.1c-4.2-4.4-13.9-16.7-11.9-33.5c1.7-14,10.6-22.9,14.3-26
									l1.1,1.3c-3.6,3-12.1,11.4-13.7,24.9c-2.3,19.2,11.4,32.2,13,33.7l1.8,1.6l-2.4-0.1
									C2362.3,2498,2355.3,2497.3,2347.6,2494.8z"/>
							</g>
						</g>
						<g>
							<g>
								<defs>
									<path id="SVGID_35_" d="M2452.7,2683.3c-12.6-4.5-30.6-12.3-49.6-26.2c-20-14.6-39.1-28.5-46.4-51.9
										c-8.4-27,8.4-35.5-0.1-60.2c-9.6-28.1-35.1-25.2-45-54.5c-6.8-19.8-1-38.7,4.1-55.3c6.1-19.9,20.1-48.6,29.2-46.8
										c10.8,2.2-3.7,43.6,20.9,72.1c18.6,21.6,40.2,13.3,58.6,38.5c2.5,3.4,16.4,22.4,13.4,45.2c-3.7,27.9-25.9,35.3-31.2,58.4
										C2402.8,2619,2409,2644.4,2452.7,2683.3z"/>
								</defs>
								<clipPath id="SVGID_36_">
									<use xlink:href="#SVGID_35_"  style="overflow:visible;"/>
								</clipPath>
								<path class="st29" d="M2397.8,2562.2l-0.3-1.1c-2.6-8.9-8.3-21.6-20.6-31.3c-27.9-21.9-64.1-7.7-65.6-7.1l-0.6-1.6
									c1.6-0.6,38.6-15.1,67.3,7.4c12.3,9.6,18.1,22,20.9,31.2c5.7-3.4,20.2-13.8,24.9-33.2c6.5-26.9-11.4-46.9-13.4-49.1l1.3-1.2
									c2.1,2.3,20.5,23,13.8,50.7c-5.1,21.2-21.7,32-26.6,34.8L2397.8,2562.2z"/>
							</g>
						</g>
						<g>
							<g>
								<defs>
									<path id="SVGID_37_" d="M2452.7,2683.3c-12.6-4.5-30.6-12.3-49.6-26.2c-20-14.6-39.1-28.5-46.4-51.9
										c-8.4-27,8.4-35.5-0.1-60.2c-9.6-28.1-35.1-25.2-45-54.5c-6.8-19.8-1-38.7,4.1-55.3c6.1-19.9,20.1-48.6,29.2-46.8
										c10.8,2.2-3.7,43.6,20.9,72.1c18.6,21.6,40.2,13.3,58.6,38.5c2.5,3.4,16.4,22.4,13.4,45.2c-3.7,27.9-25.9,35.3-31.2,58.4
										C2402.8,2619,2409,2644.4,2452.7,2683.3z"/>
								</defs>
								<clipPath id="SVGID_38_">
									<use xlink:href="#SVGID_37_"  style="overflow:visible;"/>
								</clipPath>
								<path class="st30" d="M2389.9,2615.8l-0.5-1.3c-4-11.1-10.6-21.4-19-29.6c-11.9-11.7-25.1-17.1-34.1-19.6l0.5-1.7
									c9.1,2.5,22.6,8.1,34.8,20c8.3,8.1,14.8,18.1,19,28.9l51.8-53.1l1.2,1.2L2389.9,2615.8z"/>
							</g>
						</g>
					</g>
				</g>
				<g>
					<g>
						<g>
							
								<linearGradient id="SVGID_39_" gradientUnits="userSpaceOnUse" x1="2375.7583" y1="-9.36" x2="2548.9675" y2="800.8098" gradientTransform="matrix(1 0 0 1 0 2011.8171)">
								<stop  offset="0" style="stop-color:#AA80F9"/>
								<stop  offset="0.9964" style="stop-color:#6165D7"/>
							</linearGradient>
							<path id="SVGID_22_" class="st31" d="M2420,2008.7c-12.9,6,9.5,40.7-0.2,97.5c-15.3,90.4-90.4,112.8-84,183.2
								c3.5,37.9,19.9,64.1,19.9,64.1c5.4,8.6,9.5,12.6,28.3,38.1c1.8,2.4,18.6,25.2,22.7,31.5c27.9,42.8-28.9,105.5-11.6,166.7
								c11.9,42.3,43.2,71.1,68.9,89.2c-48.1-75.6-47.6-124.2-37-155.1c14.7-42.9,48.1-49.9,65.9-103.9
								c12.4-37.7,0.8-48.5,1.1-117.8c0.5-107.2,28.4-118.8,14.2-177.6C2491.6,2055.4,2436.2,2001.1,2420,2008.7z"/>
						</g>
						<g>
							<g>
								<defs>
									<path id="SVGID_40_" d="M2420,2008.7c-12.9,6,9.5,40.7-0.2,97.5c-15.3,90.4-90.4,112.8-84,183.2
										c3.5,37.9,19.9,64.1,19.9,64.1c5.4,8.6,9.5,12.6,28.3,38.1c1.8,2.4,18.6,25.2,22.7,31.5c27.9,42.8-28.9,105.5-11.6,166.7
										c11.9,42.3,43.2,71.1,68.9,89.2c-48.1-75.6-47.6-124.2-37-155.1c14.7-42.9,48.1-49.9,65.9-103.9
										c12.4-37.7,0.8-48.5,1.1-117.8c0.5-107.2,28.4-118.8,14.2-177.6C2491.6,2055.4,2436.2,2001.1,2420,2008.7z"/>
								</defs>
								<clipPath id="SVGID_41_">
									<use xlink:href="#SVGID_40_"  style="overflow:visible;"/>
								</clipPath>
								<path class="st32" d="M2414.7,2620.4c-9.9-34.8-11-68.2-3.3-99.4c5.9-24,14.8-37.9,23.4-51.3c8.3-13,16.2-25.3,20-45.5
									c5.4-28.9-2.6-45.5-11.8-64.8c-7.9-16.4-16.8-34.9-18.2-64.2c-1.9-39.9,11.6-64.8,24.7-88.9c12.3-22.6,23.9-43.9,23.5-76.6
									c-0.5-45-24.6-90.8-71.6-136.2l1.2-1.2c47.4,45.8,71.7,92,72.2,137.5c0.4,33.1-11.9,55.6-23.7,77.4
									c-13,23.9-26.4,48.6-24.5,88c1.4,28.9,10.2,47.3,18,63.5c9.4,19.6,17.5,36.4,11.9,65.8c-3.9,20.6-11.8,33-20.2,46.2
									c-8.5,13.3-17.3,27.1-23.2,50.8c-7.6,30.9-6.5,64.1,3.3,98.6L2414.7,2620.4z"/>
							</g>
						</g>
						<g>
							<g>
								<defs>
									<path id="SVGID_42_" d="M2420,2008.7c-12.9,6,9.5,40.7-0.2,97.5c-15.3,90.4-90.4,112.8-84,183.2
										c3.5,37.9,19.9,64.1,19.9,64.1c5.4,8.6,9.5,12.6,28.3,38.1c1.8,2.4,18.6,25.2,22.7,31.5c27.9,42.8-28.9,105.5-11.6,166.7
										c11.9,42.3,43.2,71.1,68.9,89.2c-48.1-75.6-47.6-124.2-37-155.1c14.7-42.9,48.1-49.9,65.9-103.9
										c12.4-37.7,0.8-48.5,1.1-117.8c0.5-107.2,28.4-118.8,14.2-177.6C2491.6,2055.4,2436.2,2001.1,2420,2008.7z"/>
								</defs>
								<clipPath id="SVGID_43_">
									<use xlink:href="#SVGID_42_"  style="overflow:visible;"/>
								</clipPath>
								<path class="st33" d="M2462.1,2183.9v-1.4c0.3-11-1.3-39.1-23.2-63.2c-19.8-21.8-44.8-27.3-54.6-28.6l0.2-1.7
									c10,1.4,35.5,6.9,55.6,29.2c21.4,23.6,23.8,50.9,23.7,63c13.8-6.8,25.6-16.7,34.3-28.8c20.1-28.1,17.6-59.2,15.6-71.2
									l1.7-0.3c2.1,12.3,4.6,43.9-15.9,72.5c-9.1,12.7-21.6,23.1-36.2,29.9L2462.1,2183.9z"/>
							</g>
						</g>
						<g>
							<g>
								<defs>
									<path id="SVGID_44_" d="M2420,2008.7c-12.9,6,9.5,40.7-0.2,97.5c-15.3,90.4-90.4,112.8-84,183.2
										c3.5,37.9,19.9,64.1,19.9,64.1c5.4,8.6,9.5,12.6,28.3,38.1c1.8,2.4,18.6,25.2,22.7,31.5c27.9,42.8-28.9,105.5-11.6,166.7
										c11.9,42.3,43.2,71.1,68.9,89.2c-48.1-75.6-47.6-124.2-37-155.1c14.7-42.9,48.1-49.9,65.9-103.9
										c12.4-37.7,0.8-48.5,1.1-117.8c0.5-107.2,28.4-118.8,14.2-177.6C2491.6,2055.4,2436.2,2001.1,2420,2008.7z"/>
								</defs>
								<clipPath id="SVGID_45_">
									<use xlink:href="#SVGID_44_"  style="overflow:visible;"/>
								</clipPath>
								<path class="st34" d="M2439.1,2349l-0.9-0.4c-13.6-6.1-24.1-14.6-31.2-25.4c-8.3-12.5-9.4-24.1-10.6-36.3
									c-0.7-7.5-1.5-15.2-3.9-23.6c-6.2-21.2-21.8-40.5-46.4-57.2l1-1.4c24.9,16.9,40.7,36.5,47,58.1c2.5,8.5,3.2,16.3,4,23.9
									c1.2,12,2.3,23.4,10.4,35.6c6.8,10.2,16.8,18.4,29.6,24.3c4.9-15.2,11.1-29.9,18.6-43.9c13.8-25.9,31.8-49.4,53.4-69.8
									l1.2,1.3c-21.5,20.3-39.4,43.6-53.1,69.4c-7.6,14.2-13.9,29.2-18.8,44.6L2439.1,2349z"/>
							</g>
						</g>
						<g>
							<g>
								<defs>
									<path id="SVGID_46_" d="M2420,2008.7c-12.9,6,9.5,40.7-0.2,97.5c-15.3,90.4-90.4,112.8-84,183.2
										c3.5,37.9,19.9,64.1,19.9,64.1c5.4,8.6,9.5,12.6,28.3,38.1c1.8,2.4,18.6,25.2,22.7,31.5c27.9,42.8-28.9,105.5-11.6,166.7
										c11.9,42.3,43.2,71.1,68.9,89.2c-48.1-75.6-47.6-124.2-37-155.1c14.7-42.9,48.1-49.9,65.9-103.9
										c12.4-37.7,0.8-48.5,1.1-117.8c0.5-107.2,28.4-118.8,14.2-177.6C2491.6,2055.4,2436.2,2001.1,2420,2008.7z"/>
								</defs>
								<clipPath id="SVGID_47_">
									<use xlink:href="#SVGID_46_"  style="overflow:visible;"/>
								</clipPath>
								<path class="st35" d="M2449.7,2444.9l-0.3-1.5c-1.4-7-7.9-30.9-30.9-45.7c-30-19.3-62.4-7-66-5.5l-0.7-1.6
									c3.7-1.5,36.9-14.2,67.6,5.6c22.1,14.3,29.3,36.8,31.3,45.3c11.8-10.8,21.9-23.1,30.2-36.6c13.5-22,22.1-47.4,24.9-73.6
									l1.7,0.2c-2.8,26.5-11.5,52.2-25.1,74.4c-8.6,14.1-19.3,26.8-31.7,38L2449.7,2444.9z"/>
							</g>
						</g>
					</g>
				</g>
				<g>
					
						<linearGradient id="SVGID_48_" gradientUnits="userSpaceOnUse" x1="4293.4761" y1="-57.2899" x2="4150.8047" y2="272.9679" gradientTransform="matrix(0.8319 0.8423 -0.7114 0.7028 -674.9212 -1194.7512)">
						<stop  offset="0" style="stop-color:#AA80F9"/>
						<stop  offset="0.9964" style="stop-color:#6165D7"/>
					</linearGradient>
					<path class="st36" d="M2469.4,2686.7c-14.5-7.6-40.9-24-55.7-52.7c-26.6-51.4-0.5-111.2,34.6-139.7
						c43.8-35.6,79.2-4.2,120.6-37.7c47-38.1,16.5-90.9,65.4-130.4c33.2-26.8,76.5-26.2,114.8-25.6c45.9,0.7,116.9,12.7,122.1,33.3
						c6.1,24.5-90.8,19.2-124.1,89.6c-25.2,53.3,12.4,94.5-20.2,149.6c-4.4,7.5-29,49.1-77.5,56.8c-63.4,10.1-108.4-47.2-147.2-30.5
						C2486.3,2606.3,2469.5,2626.2,2469.4,2686.7z"/>
					<g>
						<g>
							<g>
								<defs>
									<path id="SVGID_49_" d="M2469.4,2686.7c-14.5-7.6-40.9-24-55.7-52.7c-26.6-51.4-0.5-111.2,34.6-139.7
										c43.8-35.6,79.2-4.2,120.6-37.7c47-38.1,16.5-90.9,65.4-130.4c33.2-26.8,76.5-26.2,114.8-25.6
										c45.9,0.7,116.9,12.7,122.1,33.3c6.1,24.5-90.8,19.2-124.1,89.6c-25.2,53.3,12.4,94.5-20.2,149.6
										c-4.4,7.5-29,49.1-77.5,56.8c-63.4,10.1-108.4-47.2-147.2-30.5C2486.3,2606.3,2469.5,2626.2,2469.4,2686.7z"/>
								</defs>
								<clipPath id="SVGID_50_">
									<use xlink:href="#SVGID_49_"  style="overflow:visible;"/>
								</clipPath>
								<path class="st37" d="M2464.2,2704.6c-29.6-65.8-34.2-113.1-13.6-140.8c16.4-22.1,41.9-23.8,71.3-25.9
									c29.8-2.1,63.6-4.4,94.3-29.6c28-23,35-49.2,42.3-76.9c6.7-25.2,13.6-51.2,37.7-74.2c38.7-36.8,103.6-47.7,193-32.4
									l-0.3,1.7c-88.8-15.2-153.3-4.5-191.5,31.9c-23.8,22.7-30.6,48.5-37.2,73.4c-7.1,26.8-14.4,54.5-42.9,77.8
									c-31.1,25.5-65.2,27.9-95.3,30c-29,2-54.1,3.8-70.1,25.2c-20.2,27.1-15.6,73.9,13.8,139L2464.2,2704.6z"/>
							</g>
						</g>
						<g>
							<g>
								<defs>
									<path id="SVGID_51_" d="M2469.4,2686.7c-14.5-7.6-40.9-24-55.7-52.7c-26.6-51.4-0.5-111.2,34.6-139.7
										c43.8-35.6,79.2-4.2,120.6-37.7c47-38.1,16.5-90.9,65.4-130.4c33.2-26.8,76.5-26.2,114.8-25.6
										c45.9,0.7,116.9,12.7,122.1,33.3c6.1,24.5-90.8,19.2-124.1,89.6c-25.2,53.3,12.4,94.5-20.2,149.6
										c-4.4,7.5-29,49.1-77.5,56.8c-63.4,10.1-108.4-47.2-147.2-30.5C2486.3,2606.3,2469.5,2626.2,2469.4,2686.7z"/>
								</defs>
								<clipPath id="SVGID_52_">
									<use xlink:href="#SVGID_51_"  style="overflow:visible;"/>
								</clipPath>
								<path class="st38" d="M2635.4,2494.6c-0.7-0.2-1.4-0.5-2.1-0.9c-11.9-6.2-11.7-28-11.5-49.1c0.3-33,9.6-59,15.2-71.6
									c17.6-40.1,46.1-66.3,66.9-81.2l1,1.4c-20.6,14.8-48.9,40.8-66.3,80.5c-5.5,12.4-14.7,38.1-15,70.9
									c-0.2,20.6-0.4,41.8,10.5,47.5c17.3,9,52.9-25.3,66.3-38.2l1-1c9-8.6,15-16.5,20.2-23.4c7.4-9.7,13.8-18.1,25.8-25.3
									c18.1-10.8,41-13.9,68.2-9.2l-0.3,1.7c-26.8-4.6-49.3-1.6-67,9c-11.7,7-18,15.3-25.3,24.9c-5.3,7-11.3,14.9-20.4,23.6l-1,1
									C2688.4,2467.8,2654.3,2500.7,2635.4,2494.6z"/>
							</g>
						</g>
						<g>
							<g>
								<defs>
									<path id="SVGID_53_" d="M2469.4,2686.7c-14.5-7.6-40.9-24-55.7-52.7c-26.6-51.4-0.5-111.2,34.6-139.7
										c43.8-35.6,79.2-4.2,120.6-37.7c47-38.1,16.5-90.9,65.4-130.4c33.2-26.8,76.5-26.2,114.8-25.6
										c45.9,0.7,116.9,12.7,122.1,33.3c6.1,24.5-90.8,19.2-124.1,89.6c-25.2,53.3,12.4,94.5-20.2,149.6
										c-4.4,7.5-29,49.1-77.5,56.8c-63.4,10.1-108.4-47.2-147.2-30.5C2486.3,2606.3,2469.5,2626.2,2469.4,2686.7z"/>
								</defs>
								<clipPath id="SVGID_54_">
									<use xlink:href="#SVGID_53_"  style="overflow:visible;"/>
								</clipPath>
								<path class="st39" d="M2605.2,2586c-18.7-6.1-40.7-22.1-65.6-48.1l-0.8-0.8l0.9-0.6c15.8-9.3,28.1-21.3,36.5-35.5
									c9.9-16.7,11.4-31.9,13.6-52.8l0.2-1.7c6.5-62.2,9.7-93.4,15.1-106.6c10.5-25.7,32.2-47.5,64.4-64.8l0.8,1.5
									c-31.9,17.1-53.3,38.7-63.6,63.9c-5.3,12.9-8.5,44.1-15,106.1l-0.2,1.7c-2.2,21.2-3.8,36.5-13.9,53.5
									c-8.4,14.2-20.6,26.2-36.1,35.6c37.4,38.8,67.8,55,90.3,48c12.6-3.9,19.4-13.8,27.4-25.2c8-11.5,17-24.5,33.9-34.7
									c21.8-13.2,49.3-17.2,81.8-11.8l-0.3,1.7c-32.1-5.3-59.2-1.4-80.6,11.6c-16.5,10-25.5,22.8-33.4,34.2
									c-8.1,11.7-15.2,21.8-28.3,25.9C2624.3,2589.6,2615.2,2589.3,2605.2,2586z"/>
							</g>
						</g>
						<g>
							<g>
								<defs>
									<path id="SVGID_55_" d="M2469.4,2686.7c-14.5-7.6-40.9-24-55.7-52.7c-26.6-51.4-0.5-111.2,34.6-139.7
										c43.8-35.6,79.2-4.2,120.6-37.7c47-38.1,16.5-90.9,65.4-130.4c33.2-26.8,76.5-26.2,114.8-25.6
										c45.9,0.7,116.9,12.7,122.1,33.3c6.1,24.5-90.8,19.2-124.1,89.6c-25.2,53.3,12.4,94.5-20.2,149.6
										c-4.4,7.5-29,49.1-77.5,56.8c-63.4,10.1-108.4-47.2-147.2-30.5C2486.3,2606.3,2469.5,2626.2,2469.4,2686.7z"/>
								</defs>
								<clipPath id="SVGID_56_">
									<use xlink:href="#SVGID_55_"  style="overflow:visible;"/>
								</clipPath>
								<path class="st40" d="M2577.9,2648.3c-44.3-14.3-68.6-46.6-68.8-46.9c-1.4-1.8-2.7-3.8-4.1-5.8
									c-7.4-10.6-15.7-22.6-30.6-26.6c-8.1-2.1-17-1.6-26.4,1.7l-1.1,0.4v-1.2c-0.1-11.2,2.5-20.8,7.8-28.6
									c6.7-9.9,16.7-13.9,25.5-17.4c9-3.6,16.8-6.7,19.5-15c6.5-19.7-3.7-37-5.8-40.3l1.5-0.9c2.2,3.4,12.7,21.4,6,41.8
									c-3,9.1-11.5,12.5-20.5,16.1c-8.6,3.4-18.3,7.3-24.7,16.8c-4.9,7.2-7.4,16.1-7.5,26.4c9.4-3,18.2-3.5,26.3-1.3
									c15.6,4.1,24.1,16.4,31.6,27.2c1.4,2,2.8,3.9,4.1,5.8c0.3,0.4,27.5,36.5,76.9,48.8c47.8,12,95.5-23.2,113.8-38.9l1.1,1.3
									c-18.5,15.9-66.7,51.5-115.3,39.3C2583.8,2650.2,2580.8,2649.3,2577.9,2648.3z"/>
							</g>
						</g>
					</g>
				</g>
			</g>
		</g>
		<g>
			
				<linearGradient id="SVGID_57_" gradientUnits="userSpaceOnUse" x1="987.2797" y1="437.1414" x2="975.2019" y2="675.6739" gradientTransform="matrix(1 0 0 1 0 2011.8171)">
				<stop  offset="0" style="stop-color:#FF9085"/>
				<stop  offset="1" style="stop-color:#FB6FBB"/>
			</linearGradient>
			<polygon class="st41" points="974.5,2632 1538,2491.1 1566.2,2628 1050.4,2866.1 641.9,2765.2 395.5,2523.3 			"/>
			
				<linearGradient id="SVGID_58_" gradientUnits="userSpaceOnUse" x1="987.2797" y1="437.1414" x2="975.2019" y2="675.6739" gradientTransform="matrix(1 0 0 1 0 2011.8171)">
				<stop  offset="0" style="stop-color:#AA80F9"/>
				<stop  offset="0.9964" style="stop-color:#6165D7"/>
			</linearGradient>
			<polygon class="st42" points="974.5,2632 1538,2491.1 1566.2,2628 1050.4,2866.1 641.9,2765.2 395.5,2523.3 			"/>
			
				<linearGradient id="SVGID_59_" gradientUnits="userSpaceOnUse" x1="956.814" y1="651.0928" x2="1662.7734" y2="651.0928" gradientTransform="matrix(1 0 0 1 0 2011.8171)">
				<stop  offset="0" style="stop-color:#AA80F9"/>
				<stop  offset="0.9964" style="stop-color:#6165D7"/>
			</linearGradient>
			<path class="st43" d="M956.8,2821.5c112-60,194.7-121.2,250.8-167.4c110.5-90.9,161.1-159.6,273-186.7
				c20-4.8,133.8-32.4,170.6,18.1c40.7,56-38.4,173.1-48,187.3c-142.9,211.5-506.7,201.6-620.8,194.7
				C973.9,2852.2,965.4,2836.9,956.8,2821.5z"/>
			
				<linearGradient id="SVGID_60_" gradientUnits="userSpaceOnUse" x1="956.8469" y1="652.7549" x2="1662.7885" y2="652.7549" gradientTransform="matrix(1 0 0 1 0 2011.8171)">
				<stop  offset="0" style="stop-color:#AA80F9"/>
				<stop  offset="0.9964" style="stop-color:#6165D7"/>
			</linearGradient>
			<path class="st44" d="M1651.2,2485.6c-10.7-14.8-28.1-22.8-47.8-26.7c6.5,22.6,7.1,43.9-1,62.4c-22.3,50.7-88.4,35.1-134.9,94.6
				c-45.6,58.4-14,114.8-54.3,138.9c-46.2,27.6-103.5-36.9-153-6c-33.7,21-23.2,60.8-62.4,82.5c-27.1,15-53.7,7.9-84.5,4
				c-35.4-4.4-83.9-5.4-144.7,7.3c4.6,8.3,9.2,16.6,13.8,24.9c114.1,6.9,477.9,16.7,620.8-194.7
				C1612.8,2658.6,1691.9,2541.5,1651.2,2485.6z"/>
			
				<linearGradient id="SVGID_61_" gradientUnits="userSpaceOnUse" x1="1156.7527" y1="925.8144" x2="1020.8802" y2="756.7289" gradientTransform="matrix(1 0 0 1 0 2011.8171)">
				<stop  offset="0" style="stop-color:#311944"/>
				<stop  offset="1" style="stop-color:#6B3976"/>
			</linearGradient>
			<path class="st45" d="M1041.5,2853.1c0,0,20.5-14.7,50.3-4.7c29.8,10,77.1,18.1,77,32.7c-0.1,14.6-47.4,23.7-80.1,17.7
				C1057.4,2893.1,1032.8,2865.9,1041.5,2853.1z"/>
			
				<linearGradient id="SVGID_62_" gradientUnits="userSpaceOnUse" x1="1073.3159" y1="885.6765" x2="886.1107" y2="650.1605" gradientTransform="matrix(1 0 0 1 0 2011.8171)">
				<stop  offset="0" style="stop-color:#FFC444"/>
				<stop  offset="0.9964" style="stop-color:#F36F56"/>
			</linearGradient>
			<path class="st46" d="M1011.4,2828.3l54.8,17.6c0,0,8.9,14.8-3.1,24.2s-53.8-10.5-53.8-10.5L1011.4,2828.3z"/>
			
				<linearGradient id="SVGID_63_" gradientUnits="userSpaceOnUse" x1="670.2787" y1="643.2126" x2="514.7313" y2="966.7513" gradientTransform="matrix(1 0 0 1 0 2011.8171)">
				<stop  offset="0" style="stop-color:#AA80F9"/>
				<stop  offset="0.9964" style="stop-color:#6165D7"/>
			</linearGradient>
			<path class="st47" d="M249.7,2575.6c-16.2,94.2,187.1,196.1,233.7,219.4c94.9,47.6,273.4,114.7,538.3,89
				c3.5-21.1,7.1-42.3,10.6-63.4c-35-12-86.9-31.5-147-61.1c-102.7-50.5-141.7-86.6-284.2-172.8c-157.7-95.3-203.6-107.6-250.6-95.8
				C310.2,2501.2,257.2,2531.9,249.7,2575.6z"/>
			
				<linearGradient id="SVGID_64_" gradientUnits="userSpaceOnUse" x1="620.6591" y1="1008.9052" x2="948.1352" y2="304.8313" gradientTransform="matrix(1 0 0 1 0 2011.8171)">
				<stop  offset="3.597000e-03" style="stop-color:#F36F56"/>
				<stop  offset="1" style="stop-color:#FFC444"/>
			</linearGradient>
			<path class="st48" d="M461.6,2396.5c-34.4-124.3,22.4-292,141.9-372.9c97.6-66,211.9-61.7,247.6-60.4c39.1,1.5,35,6.5,158,29.3
				c170.7,31.6,186.4,23.9,236.1,47.7c93.3,44.7,138.7,126,147.1,141.9c43.4,81,78.7,231.4-3.7,305
				c-46.8,41.8-112.5,41.7-149.5,37.7c-2.5-16.6-5-33.2-7.6-49.8c7.5-5.8,51.9-41.4,57.4-104.2c6.3-72.1-44.1-118.7-49.8-123.8
				c-17.9,34.5-39.9,87-49.8,154c-12.8,86.6,0.4,157.7,11.7,199.6c-45.1,24.8-119.8,58.4-217,69.1c-73.2,8.1-163.9-7.4-221.9-52.7
				c-81.8-63.9-88.7-204.9-7.9-378.2c-29.6,19.8-72.4,55.7-90.2,112.4c-2.7,8.6-7.2,25.4-9.1,90.6
				C651.6,2558.9,497.2,2525.3,461.6,2396.5z"/>
			
				<linearGradient id="SVGID_65_" gradientUnits="userSpaceOnUse" x1="899.9216" y1="70.4436" x2="925.5046" y2="484.2885" gradientTransform="matrix(1 0 0 1 0 2011.8171)">
				<stop  offset="3.597000e-03" style="stop-color:#F36F56"/>
				<stop  offset="1" style="stop-color:#FFC444"/>
			</linearGradient>
			<path class="st49" d="M1015.6,2482.5c-41.2,5.1-52.4,47.8-90.6,45.3c-83.1-5.4-149.8-149.4-114.7-228
				c22.9-51.2,82.6-60.2,78.5-93.6c-3.3-26.7-44.7-47.3-78.5-48.3c-52.7-1.6-87.4,44.3-99.6,60.4c-28.5,37.6-34.7,78.9-35.3,105.5
				c20.9-41.1,54.3-68.6,78.7-85c-80.8,173.3-73.9,311.1,7.9,375c58,45.3,148.7,64,221.9,55.9c78.9-8.7,142.9-32.5,188.4-54.4
				C1128.2,2543.4,1071.9,2475.6,1015.6,2482.5z"/>
			
				<linearGradient id="SVGID_66_" gradientUnits="userSpaceOnUse" x1="677.4139" y1="611.6999" x2="1160.4139" y2="611.6999" gradientTransform="matrix(1 0 0 1 0 2011.8171)">
				<stop  offset="0" style="stop-color:#AA80F9"/>
				<stop  offset="0.9964" style="stop-color:#6165D7"/>
			</linearGradient>
			<polygon class="st50" points="1159.1,2599.8 677.4,2592.6 805.5,2654.4 1160.4,2631.2 			"/>
			
				<linearGradient id="SVGID_67_" gradientUnits="userSpaceOnUse" x1="419.6595" y1="952.3212" x2="756.6436" y2="227.8054" gradientTransform="matrix(1 0 0 1 0 2011.8171)">
				<stop  offset="3.597000e-03" style="stop-color:#F36F56"/>
				<stop  offset="1" style="stop-color:#FFC444"/>
			</linearGradient>
			<path class="st51" d="M484.9,2313.7c37.2-35.2,128.4-13,162.4,37.5c25,37.2,4.3,67.9,22.7,114.7
				c22.5,57.4,107.2,109.4,159.2,126.7c-8.2,17.5-5.8,22.1-13.9,39.6c-33.1-4.1-272.4-40.8-331-182.9
				C481.2,2441.9,445,2351.4,484.9,2313.7z"/>
			<path class="st17" d="M1028.1,1942.7c0,0-39,42.1-71.3,46.5s-79.1-4.2-87.1,0c-8.1,4.2,40.6,21.5,79.2,32.1
				s108.7,31.7,128.1,27.1c19.4-4.6-21.2-29.5-37.2-36.1c-16.1-6.6,6.9-40.4,6.9-40.4L1028.1,1942.7z"/>
			<g>
				
					<linearGradient id="SVGID_68_" gradientUnits="userSpaceOnUse" x1="3364.1338" y1="627.0815" x2="3293.6772" y2="448.135" gradientTransform="matrix(-0.7945 -0.6073 -0.6073 0.7945 3978.2439 3551.2505)">
					<stop  offset="0" style="stop-color:#311944"/>
					<stop  offset="1" style="stop-color:#6B3976"/>
				</linearGradient>
				<path class="st52" d="M1085.9,1966.8c14.1-3.9,27-19.7,26.8-36.1c-0.1-14.1-10-23.7-16-29.5c-17.2-16.7-47-27.1-68.7-16.2
					c-12.8,6.5-18.7,36-20,41.1c-1.5,5.8,0.8,9.9,1.4,15.6c0.9,7.9,2.1,20.4,4,41.1c3.6-2.9,8.3-6.3,14.1-9.5
					c2.2-1.2,11-5.9,20.5-8.1C1067.3,1960.9,1072.6,1970.5,1085.9,1966.8z"/>
				<path class="st17" d="M1005.5,1960.5c0,0-3.3,29.9,22.6,47.3c23.2,15.6,64.6-31.5,58.6-52.9c-2-7.1-10.3-15.9-19.6-19.6
					c-5.5-2.2-8.5-1.5-17.4-5.3c-8.2-3.5-9.6-5.8-13-5.6c-4.3,0.2-10.3,4.1-17.1,21.9c-0.9-7.5-4.7-13.1-9.6-14.1
					c-0.8-0.2-3.1-0.3-5.2,0.6C997.3,1936,996.9,1947.3,1005.5,1960.5z"/>
				
					<linearGradient id="SVGID_69_" gradientUnits="userSpaceOnUse" x1="3342.4851" y1="635.7067" x2="3271.9521" y2="456.566" gradientTransform="matrix(-0.7945 -0.6073 -0.6073 0.7945 3978.2439 3551.2505)">
					<stop  offset="0" style="stop-color:#311944"/>
					<stop  offset="1" style="stop-color:#6B3976"/>
				</linearGradient>
				<path class="st53" d="M1037.9,1920.7c0.4,1.6-5.9,3.1-10.4,8.5c-8.9,10.6-7.9,32.2,2.5,42c6.2,5.8,11.1,3.2,23,10.5
					c7.4,4.5,12.4,9.8,15.4,13.3c-5.8,14.6-18.2,24.1-30.5,23.4c-13.2-0.7-21.4-12.8-24.9-17.8c-2.3-3.4-9.7-14.2-7.9-27.2
					c1.9-13.6,11.5-15.2,10.3-26.3c-0.6-5.6-3.6-10.1-2.8-19.4c0.2-2.5,0.7-4.6,1-5.9C1023.9,1920.1,1037.3,1918.3,1037.9,1920.7z"
					/>
				
					<linearGradient id="SVGID_70_" gradientUnits="userSpaceOnUse" x1="1041.0726" y1="-21.3106" x2="1058.5225" y2="-21.3106" gradientTransform="matrix(1 0 0 1 0 2011.8171)">
					<stop  offset="3.597000e-03" style="stop-color:#F36F56"/>
					<stop  offset="1" style="stop-color:#FFC444"/>
				</linearGradient>
				<path class="st54" d="M1056.9,1993.2c0,0-6.7-1.2-14.6-8c-0.4-0.3-0.9-0.6-1.1-0.4c-0.8,0.6,1.8,8.2,7.7,10.6
					c4.2,1.7,9.4,0.5,9.6-0.7C1058.6,1994.3,1057.8,1993.7,1056.9,1993.2z"/>
			</g>
			<g>
				
					<linearGradient id="SVGID_71_" gradientUnits="userSpaceOnUse" x1="807.8462" y1="491.2525" x2="1409.6426" y2="491.2525" gradientTransform="matrix(1 0 0 1 0 2011.8171)">
					<stop  offset="0" style="stop-color:#444B8C"/>
					<stop  offset="0.9964" style="stop-color:#26264F"/>
				</linearGradient>
				<path class="st55" d="M841.9,2350.5l-34,309.2c-1.2,10.7,13.8,26.6,24.5,26.1l498.2-30.6c8.2-0.4,15-6.4,16.4-14.5l62.5-298.6
					c1.9-10.9-17.7-22.1-28.7-21.8l-522,14.7C850,2335.2,842.8,2341.8,841.9,2350.5z"/>
				
					<linearGradient id="SVGID_72_" gradientUnits="userSpaceOnUse" x1="819.2031" y1="496.9061" x2="1410.1782" y2="496.9061" gradientTransform="matrix(1 0 0 1 0 2011.8171)">
					<stop  offset="0" style="stop-color:#444B8C"/>
					<stop  offset="0.9964" style="stop-color:#26264F"/>
				</linearGradient>
				<path class="st56" d="M853.3,2359.5l-34,309.2c-1.2,10.7,7.5,19.9,18.2,19.4l504.5-23.9c8.2-0.4,15-6.4,16.4-14.5l51.5-300
					c1.9-10.9-6.7-20.7-17.7-20.4l-522,14.7C861.4,2344.2,854.2,2350.9,853.3,2359.5z"/>
			</g>
			
				<linearGradient id="SVGID_73_" gradientUnits="userSpaceOnUse" x1="819.103" y1="503.7597" x2="1365.4139" y2="503.7597" gradientTransform="matrix(1 0 0 1 0 2011.8171)">
				<stop  offset="0" style="stop-color:#444B8C"/>
				<stop  offset="0.9964" style="stop-color:#26264F"/>
			</linearGradient>
			<path class="st57" d="M1149.5,2591.7c-44.1-18.7-28.5-54.3-80.5-98.6c-68.6-58.5-138.6-33.1-163.1-78.5
				c-7.6-14.1-11.3-36.1,2-71.7l-37.8,1.1c-8.7,0.2-15.9,6.9-16.9,15.6l-34,309.2c-1.2,10.7,7.5,19.9,18.2,19.4l504.5-23.9
				c8.2-0.4,15-6.4,16.4-14.5l7.1-41.4c-15.3-8.5-33.6-16.3-54.9-20.6C1236.5,2572.7,1200.2,2613.2,1149.5,2591.7z"/>
			<path class="st17" d="M800.1,2621.5c21.1,19.7,35.2,18,39.9,16.9c7.9-1.8,9-6.2,29.1-22c18-14.1,23.6-15.6,23.4-20.5
				c-0.4-9.2-21.3-17.2-38.4-18.1c-23.9-1.2-42,11.6-49.1,17.4L800.1,2621.5z"/>
		</g>
	</g>
</g>
</svg>
